# Blender v2.92.0 OBJ File: ''
# www.blender.org
mtllib untitled.mtl
o Cube_Cube.001
v -1.000000 -0.036849 1.000000
v -1.000000 0.036849 1.000000
v -1.000000 -0.036849 -1.000000
v -1.000000 0.036849 -1.000000
v 1.000000 -0.036849 1.000000
v 1.000000 0.036849 1.000000
v 1.000000 -0.036849 -1.000000
v 1.000000 0.036849 -1.000000
vt 0.625000 0.000000
vt 0.375000 0.250000
vt 0.375000 0.000000
vt 0.625000 0.250000
vt 0.375000 0.500000
vt 0.625000 0.500000
vt 0.375000 0.750000
vt 0.625000 0.750000
vt 0.375000 1.000000
vt 0.125000 0.750000
vt 0.125000 0.500000
vt 0.875000 0.500000
vt 0.625000 1.000000
vt 0.875000 0.750000
vn -1.0000 0.0000 0.0000
vn 0.0000 0.0000 -1.0000
vn 1.0000 0.0000 0.0000
vn 0.0000 0.0000 1.0000
vn 0.0000 -1.0000 0.0000
vn 0.0000 1.0000 0.0000
usemtl None
s off
f 2/1/1 3/2/1 1/3/1
f 4/4/2 7/5/2 3/2/2
f 8/6/3 5/7/3 7/5/3
f 6/8/4 1/9/4 5/7/4
f 7/5/5 1/10/5 3/11/5
f 4/12/6 6/8/6 8/6/6
f 2/1/1 4/4/1 3/2/1
f 4/4/2 8/6/2 7/5/2
f 8/6/3 6/8/3 5/7/3
f 6/8/4 2/13/4 1/9/4
f 7/5/5 5/7/5 1/10/5
f 4/12/6 2/14/6 6/8/6
o Cube.001_Cube.002
v -0.757172 0.044844 0.757172
v -0.757172 0.100645 0.757172
v -0.757172 0.044844 -0.757172
v -0.757172 0.100645 -0.757172
v 0.757172 0.044844 0.757172
v 0.757172 0.100645 0.757172
v 0.757172 0.044844 -0.757172
v 0.757172 0.100645 -0.757172
vt 0.625000 0.000000
vt 0.375000 0.250000
vt 0.375000 0.000000
vt 0.625000 0.250000
vt 0.375000 0.500000
vt 0.625000 0.500000
vt 0.375000 0.750000
vt 0.625000 0.750000
vt 0.375000 1.000000
vt 0.125000 0.750000
vt 0.125000 0.500000
vt 0.875000 0.500000
vt 0.625000 1.000000
vt 0.875000 0.750000
vn -1.0000 0.0000 0.0000
vn 0.0000 0.0000 -1.0000
vn 1.0000 0.0000 0.0000
vn 0.0000 0.0000 1.0000
vn 0.0000 -1.0000 0.0000
vn 0.0000 1.0000 0.0000
usemtl None
s off
f 10/15/7 11/16/7 9/17/7
f 12/18/8 15/19/8 11/16/8
f 16/20/9 13/21/9 15/19/9
f 14/22/10 9/23/10 13/21/10
f 15/19/11 9/24/11 11/25/11
f 12/26/12 14/22/12 16/20/12
f 10/15/7 12/18/7 11/16/7
f 12/18/8 16/20/8 15/19/8
f 16/20/9 14/22/9 13/21/9
f 14/22/10 10/27/10 9/23/10
f 15/19/11 13/21/11 9/24/11
f 12/26/12 10/28/12 14/22/12
o Circle
v 0.000000 0.118405 -0.688865
v -0.263617 0.118405 -0.636428
v -0.487101 0.118405 -0.487101
v -0.636428 0.118405 -0.263617
v -0.688865 0.118405 0.000000
v -0.636428 0.118405 0.263617
v -0.487101 0.118405 0.487101
v -0.263617 0.118405 0.636428
v -0.000000 0.118405 0.688865
v 0.263617 0.118405 0.636428
v 0.487101 0.118405 0.487101
v 0.636428 0.118405 0.263617
v 0.688865 0.118405 -0.000000
v 0.636428 0.118405 -0.263617
v 0.487101 0.118405 -0.487101
v 0.263617 0.118405 -0.636428
v 0.000000 0.250029 -0.688865
v -0.263617 0.250029 -0.636428
v -0.487101 0.250029 -0.487101
v -0.636428 0.250029 -0.263617
v -0.688865 0.250029 0.000000
v -0.636428 0.250029 0.263617
v -0.487101 0.250029 0.487101
v -0.263617 0.250029 0.636428
v -0.000000 0.250029 0.688865
v 0.263617 0.250029 0.636428
v 0.487101 0.250029 0.487101
v 0.636428 0.250029 0.263617
v 0.688865 0.250029 -0.000000
v 0.636428 0.250029 -0.263617
v 0.487101 0.250029 -0.487101
v 0.263617 0.250029 -0.636428
v -0.000000 0.250029 -0.657421
v -0.251584 0.250029 -0.607378
v -0.464867 0.250029 -0.464867
v -0.607378 0.250029 -0.251584
v -0.657421 0.250029 0.000000
v -0.607378 0.250029 0.251584
v -0.464867 0.250029 0.464867
v -0.251584 0.250029 0.607378
v -0.000000 0.250029 0.657421
v 0.251584 0.250029 0.607378
v 0.464867 0.250029 0.464867
v 0.607378 0.250029 0.251584
v 0.657421 0.250029 -0.000000
v 0.607378 0.250029 -0.251584
v 0.464867 0.250029 -0.464867
v 0.251584 0.250029 -0.607378
v -0.000000 0.310024 -0.657421
v -0.251584 0.310024 -0.607378
v -0.464867 0.310024 -0.464867
v -0.607378 0.310024 -0.251584
v -0.657421 0.310024 0.000000
v -0.607378 0.310024 0.251584
v -0.464867 0.310024 0.464867
v -0.251584 0.310024 0.607378
v -0.000000 0.310024 0.657421
v 0.251584 0.310024 0.607378
v 0.464867 0.310024 0.464867
v 0.607378 0.310024 0.251584
v 0.657421 0.310024 -0.000000
v 0.607378 0.310024 -0.251584
v 0.464867 0.310024 -0.464867
v 0.251584 0.310024 -0.607378
v -0.000000 0.310024 -0.622600
v -0.238259 0.310024 -0.575207
v -0.440245 0.310024 -0.440245
v -0.575207 0.310024 -0.238259
v -0.622600 0.310024 0.000000
v -0.575207 0.310024 0.238259
v -0.440245 0.310024 0.440245
v -0.238259 0.310024 0.575207
v -0.000000 0.310024 0.622600
v 0.238258 0.310024 0.575207
v 0.440244 0.310024 0.440245
v 0.575207 0.310024 0.238259
v 0.622600 0.310024 -0.000000
v 0.575207 0.310024 -0.238259
v 0.440244 0.310024 -0.440245
v 0.238258 0.310024 -0.575207
v -0.000000 0.474128 -0.491605
v -0.188129 0.474128 -0.454184
v -0.347617 0.474128 -0.347617
v -0.454184 0.474128 -0.188129
v -0.491605 0.474128 0.000000
v -0.454184 0.474128 0.188129
v -0.347617 0.474128 0.347617
v -0.188129 0.474128 0.454184
v -0.000000 0.474128 0.491605
v 0.188129 0.474128 0.454184
v 0.347617 0.474128 0.347617
v 0.454184 0.474128 0.188129
v 0.491605 0.474128 -0.000000
v 0.454184 0.474128 -0.188129
v 0.347617 0.474128 -0.347617
v 0.188129 0.474128 -0.454184
v -0.000000 0.567957 -0.491605
v -0.188129 0.567957 -0.454184
v -0.347617 0.567957 -0.347617
v -0.454184 0.567957 -0.188129
v -0.491605 0.567957 0.000000
v -0.454184 0.567957 0.188129
v -0.347617 0.567957 0.347617
v -0.188129 0.567957 0.454184
v -0.000000 0.567957 0.491605
v 0.188129 0.567957 0.454184
v 0.347617 0.567957 0.347617
v 0.454184 0.567957 0.188129
v 0.491605 0.567957 -0.000000
v 0.454184 0.567957 -0.188129
v 0.347617 0.567957 -0.347617
v 0.188129 0.567957 -0.454184
v -0.000000 0.567957 -0.411732
v -0.157563 0.567957 -0.380391
v -0.291139 0.567957 -0.291139
v -0.380391 0.567957 -0.157563
v -0.411732 0.567957 0.000000
v -0.380391 0.567957 0.157563
v -0.291139 0.567957 0.291139
v -0.157563 0.567957 0.380391
v -0.000000 0.567957 0.411732
v 0.157563 0.567957 0.380391
v 0.291138 0.567957 0.291139
v 0.380391 0.567957 0.157563
v 0.411732 0.567957 -0.000000
v 0.380391 0.567957 -0.157563
v 0.291138 0.567957 -0.291139
v 0.157563 0.567957 -0.380391
vt 0.000000 0.000000
vt 0.000000 0.000000
vt 0.000000 0.000000
vt 0.000000 0.000000
vt 0.000000 0.000000
vt 0.000000 0.000000
vt 0.000000 0.000000
vt 0.000000 0.000000
vt 0.000000 0.000000
vt 0.000000 0.000000
vt 0.000000 0.000000
vt 0.000000 0.000000
vt 0.000000 0.000000
vt 0.000000 0.000000
vt 0.000000 0.000000
vt 0.000000 0.000000
vt 0.000000 0.000000
vt 0.000000 0.000000
vt 0.000000 0.000000
vt 0.000000 0.000000
vt 0.000000 0.000000
vt 0.000000 0.000000
vt 0.000000 0.000000
vt 0.000000 0.000000
vt 0.000000 0.000000
vt 0.000000 0.000000
vt 0.000000 0.000000
vt 0.000000 0.000000
vt 0.000000 0.000000
vt 0.000000 0.000000
vt 0.000000 0.000000
vt 0.000000 0.000000
vt 0.000000 0.000000
vt 0.000000 0.000000
vt 0.000000 0.000000
vt 0.000000 0.000000
vt 0.000000 0.000000
vt 0.000000 0.000000
vt 0.000000 0.000000
vt 0.000000 0.000000
vt 0.000000 0.000000
vt 0.000000 0.000000
vt 0.000000 0.000000
vt 0.000000 0.000000
vt 0.000000 0.000000
vt 0.000000 0.000000
vt 0.000000 0.000000
vt 0.000000 0.000000
vt 0.000000 0.000000
vt 0.000000 0.000000
vt 0.000000 0.000000
vt 0.000000 0.000000
vt 0.000000 0.000000
vt 0.000000 0.000000
vt 0.000000 0.000000
vt 0.000000 0.000000
vt 0.000000 0.000000
vt 0.000000 0.000000
vt 0.000000 0.000000
vt 0.000000 0.000000
vt 0.000000 0.000000
vt 0.000000 0.000000
vt 0.000000 0.000000
vt 0.000000 0.000000
vt 0.000000 0.000000
vt 0.000000 0.000000
vt 0.000000 0.000000
vt 0.000000 0.000000
vt 0.000000 0.000000
vt 0.000000 0.000000
vt 0.000000 0.000000
vt 0.000000 0.000000
vt 0.000000 0.000000
vt 0.000000 0.000000
vt 0.000000 0.000000
vt 0.000000 0.000000
vt 0.000000 0.000000
vt 0.000000 0.000000
vt 0.000000 0.000000
vt 0.000000 0.000000
vt 0.000000 0.000000
vt 0.000000 0.000000
vt 0.000000 0.000000
vt 0.000000 0.000000
vt 0.000000 0.000000
vt 0.000000 0.000000
vt 0.000000 0.000000
vt 0.000000 0.000000
vt 0.000000 0.000000
vt 0.000000 0.000000
vt 0.000000 0.000000
vt 0.000000 0.000000
vt 0.000000 0.000000
vt 0.000000 0.000000
vt 0.000000 0.000000
vt 0.000000 0.000000
vt 0.000000 0.000000
vt 0.000000 0.000000
vt 0.000000 0.000000
vt 0.000000 0.000000
vt 0.000000 0.000000
vt 0.000000 0.000000
vt 0.000000 0.000000
vt 0.000000 0.000000
vt 0.000000 0.000000
vt 0.000000 0.000000
vt 0.000000 0.000000
vt 0.000000 0.000000
vt 0.000000 0.000000
vt 0.000000 0.000000
vt 0.000000 0.000000
vt 0.000000 0.000000
vt 0.000000 0.000000
vt 0.000000 0.000000
vt 0.000000 0.000000
vt 0.000000 0.000000
vt 0.000000 0.000000
vt 0.000000 0.000000
vt 0.000000 0.000000
vt 0.000000 0.000000
vt 0.000000 0.000000
vt 0.000000 0.000000
vt 0.000000 0.000000
vt 0.000000 0.000000
vt 0.000000 0.000000
vt 0.000000 0.000000
vt 0.000000 0.000000
vt 0.000000 0.000000
vn 0.0000 0.6657 -0.7462
vn 0.3827 0.0000 -0.9239
vn 0.0000 0.0000 -1.0000
vn 0.2855 0.6657 0.6894
vn 0.0000 0.0000 1.0000
vn 0.3827 0.0000 0.9239
vn -0.5276 0.6657 -0.5276
vn -0.3827 0.0000 -0.9239
vn -0.7071 0.0000 -0.7071
vn 0.5276 0.6657 0.5276
vn 0.7071 0.0000 0.7071
vn -0.6894 0.6657 -0.2855
vn -0.9239 0.0000 -0.3827
vn 0.6894 0.6657 0.2855
vn 0.9239 0.0000 0.3827
vn -0.7462 0.6657 0.0000
vn -1.0000 0.0000 0.0000
vn 0.7462 0.6657 0.0000
vn 1.0000 0.0000 0.0000
vn -0.6894 0.6657 0.2855
vn -0.9239 0.0000 0.3827
vn 0.6894 0.6657 -0.2855
vn 0.9239 0.0000 -0.3827
vn -0.5276 0.6657 0.5276
vn -0.7071 0.0000 0.7071
vn 0.5276 0.6657 -0.5276
vn 0.7071 0.0000 -0.7071
vn -0.2855 0.6657 0.6894
vn -0.3827 0.0000 0.9239
vn 0.2855 0.6657 -0.6894
vn 0.0000 0.6657 0.7462
vn -0.2855 0.6657 -0.6894
vn 0.4646 0.7537 -0.4646
vn 0.0000 0.7537 0.6571
vn -0.2515 0.7537 -0.6071
vn 0.2515 0.7537 -0.6071
vn 0.4646 0.7537 0.4646
vn -0.4646 0.7537 -0.4646
vn 0.6071 0.7537 0.2515
vn -0.6571 0.7537 0.0000
vn 0.6571 0.7537 0.0000
vn -0.6071 0.7537 0.2515
vn -0.4646 0.7537 0.4646
vn 0.6071 0.7537 -0.2515
vn -0.2515 0.7537 0.6071
vn 0.0000 0.7537 -0.6571
vn 0.2515 0.7537 0.6071
vn -0.6071 0.7537 -0.2515
vn 0.2741 0.9218 0.2741
vn -0.3582 0.9218 -0.1484
vn 0.3582 0.9218 0.1484
vn -0.3877 0.9218 0.0000
vn 0.3877 0.9218 0.0000
vn -0.3582 0.9218 0.1484
vn 0.3582 0.9218 -0.1484
vn -0.2741 0.9218 0.2741
vn 0.2741 0.9218 -0.2741
vn -0.1484 0.9218 0.3582
vn 0.0000 0.9218 -0.3877
vn 0.1484 0.9218 -0.3582
vn 0.1484 0.9218 0.3582
vn -0.1484 0.9218 -0.3582
vn 0.3593 0.3440 -0.8675
vn 0.0000 0.3440 0.9389
vn 0.0000 0.9218 0.3877
vn -0.3593 0.3440 -0.8675
vn 0.3593 0.3440 0.8675
vn -0.6639 0.3440 -0.6639
vn -0.2741 0.9218 -0.2741
vn 0.6639 0.3440 0.6639
vn -0.8675 0.3440 -0.3593
vn 0.8675 0.3440 0.3593
vn -0.9389 0.3440 0.0000
vn 0.8675 0.3440 -0.3593
vn -0.8675 0.3440 0.3593
vn -0.3593 0.3440 0.8675
vn 0.9389 0.3440 0.0000
vn -0.6639 0.3440 0.6639
vn 0.6639 0.3440 -0.6639
vn 0.0000 0.3440 -0.9389
vn 0.0000 1.0000 0.0000
usemtl None
s 1
f 33/29/13 32/30/14 17/31/15
f 42/32/16 25/33/17 26/34/18
f 35/35/19 18/36/20 19/37/21
f 43/38/22 26/34/18 27/39/23
f 36/40/24 19/37/21 20/41/25
f 44/42/26 27/39/23 28/43/27
f 37/44/28 20/41/25 21/45/29
f 45/46/30 28/43/27 29/47/31
f 38/48/32 21/45/29 22/49/33
f 46/50/34 29/47/31 30/51/35
f 39/52/36 22/49/33 23/53/37
f 47/54/38 30/51/35 31/55/39
f 40/56/40 23/53/37 24/57/41
f 48/58/42 31/55/39 32/30/14
f 41/59/43 24/57/41 25/33/17
f 34/60/44 17/31/15 18/36/20
f 48/58/42 63/61/45 47/54/38
f 57/62/46 40/56/40 41/59/43
f 50/63/47 33/29/13 34/60/44
f 33/29/13 64/64/48 48/58/42
f 42/32/16 57/62/46 41/59/43
f 35/35/19 50/63/47 34/60/44
f 59/65/49 42/32/16 43/38/22
f 36/40/24 51/66/50 35/35/19
f 60/67/51 43/38/22 44/42/26
f 53/68/52 36/40/24 37/44/28
f 61/69/53 44/42/26 45/46/30
f 54/70/54 37/44/28 38/48/32
f 46/50/34 61/69/53 45/46/30
f 55/71/55 38/48/32 39/52/36
f 47/54/38 62/72/56 46/50/34
f 56/73/57 39/52/36 40/56/40
f 70/74/32 53/68/52 54/70/54
f 78/75/34 61/69/53 62/72/56
f 71/76/36 54/70/54 55/71/55
f 79/77/38 62/72/56 63/61/45
f 72/78/40 55/71/55 56/73/57
f 80/79/42 63/61/45 64/64/48
f 73/80/43 56/73/57 57/62/46
f 66/81/44 49/82/58 50/63/47
f 65/83/13 64/64/48 49/82/58
f 74/84/16 57/62/46 58/85/59
f 67/86/19 50/63/47 51/66/50
f 75/87/22 58/85/59 59/65/49
f 68/88/24 51/66/50 52/89/60
f 76/90/26 59/65/49 60/67/51
f 69/91/28 52/89/60 53/68/52
f 77/92/30 60/67/51 61/69/53
f 91/93/61 74/84/16 75/87/22
f 84/94/62 67/86/19 68/88/24
f 92/95/63 75/87/22 76/90/26
f 85/96/64 68/88/24 69/91/28
f 93/97/65 76/90/26 77/92/30
f 86/98/66 69/91/28 70/74/32
f 94/99/67 77/92/30 78/75/34
f 87/100/68 70/74/32 71/76/36
f 95/101/69 78/75/34 79/77/38
f 88/102/70 71/76/36 72/78/40
f 80/79/42 95/101/69 79/77/38
f 73/80/43 88/102/70 72/78/40
f 66/81/44 81/103/71 65/83/13
f 65/83/13 96/104/72 80/79/42
f 90/105/73 73/80/43 74/84/16
f 67/86/19 82/106/74 66/81/44
f 112/107/75 95/101/69 96/104/72
f 105/108/76 88/102/70 89/109/77
f 98/110/78 81/103/71 82/106/74
f 81/103/71 112/107/75 96/104/72
f 106/111/79 89/109/77 90/105/73
f 99/112/80 82/106/74 83/113/81
f 107/114/82 90/105/73 91/93/61
f 100/115/83 83/113/81 84/94/62
f 108/116/84 91/93/61 92/95/63
f 101/117/85 84/94/62 85/96/64
f 93/97/65 108/116/84 92/95/63
f 86/98/66 101/117/85 85/96/64
f 110/118/86 93/97/65 94/99/67
f 87/100/68 102/119/87 86/98/66
f 95/101/69 110/118/86 94/99/67
f 104/120/88 87/100/68 88/102/70
f 126/121/34 109/122/89 110/118/86
f 119/123/36 102/119/87 103/124/90
f 127/125/38 110/118/86 111/126/91
f 120/127/40 103/124/90 104/120/88
f 128/128/42 111/126/91 112/107/75
f 121/129/43 104/120/88 105/108/76
f 114/130/44 97/131/92 98/110/78
f 113/132/13 112/107/75 97/131/92
f 122/133/16 105/108/76 106/111/79
f 115/134/19 98/110/78 99/112/80
f 123/135/22 106/111/79 107/114/82
f 116/136/24 99/112/80 100/115/83
f 124/137/26 107/114/82 108/116/84
f 117/138/28 100/115/83 101/117/85
f 125/139/30 108/116/84 109/122/89
f 118/140/32 101/117/85 102/119/87
f 116/136/24 131/141/93 115/134/19
f 140/142/93 123/135/22 124/137/26
f 133/143/93 116/136/24 117/138/28
f 125/139/30 140/142/93 124/137/26
f 134/144/93 117/138/28 118/140/32
f 142/145/93 125/139/30 126/121/34
f 119/123/36 134/144/93 118/140/32
f 143/146/93 126/121/34 127/125/38
f 136/147/93 119/123/36 120/127/40
f 144/148/93 127/125/38 128/128/42
f 121/129/43 136/147/93 120/127/40
f 130/149/93 113/132/13 114/130/44
f 113/132/13 144/148/93 128/128/42
f 138/150/93 121/129/43 122/133/16
f 131/141/93 114/130/44 115/134/19
f 139/151/93 122/133/16 123/135/22
f 33/29/13 48/58/42 32/30/14
f 42/32/16 41/59/43 25/33/17
f 35/35/19 34/60/44 18/36/20
f 43/38/22 42/32/16 26/34/18
f 36/40/24 35/35/19 19/37/21
f 44/42/26 43/38/22 27/39/23
f 37/44/28 36/40/24 20/41/25
f 45/46/30 44/42/26 28/43/27
f 38/48/32 37/44/28 21/45/29
f 46/50/34 45/46/30 29/47/31
f 39/52/36 38/48/32 22/49/33
f 47/54/38 46/50/34 30/51/35
f 40/56/40 39/52/36 23/53/37
f 48/58/42 47/54/38 31/55/39
f 41/59/43 40/56/40 24/57/41
f 34/60/44 33/29/13 17/31/15
f 48/58/42 64/64/48 63/61/45
f 57/62/46 56/73/57 40/56/40
f 50/63/47 49/82/58 33/29/13
f 33/29/13 49/82/58 64/64/48
f 42/32/16 58/85/59 57/62/46
f 35/35/19 51/66/50 50/63/47
f 59/65/49 58/85/59 42/32/16
f 36/40/24 52/89/60 51/66/50
f 60/67/51 59/65/49 43/38/22
f 53/68/52 52/89/60 36/40/24
f 61/69/53 60/67/51 44/42/26
f 54/70/54 53/68/52 37/44/28
f 46/50/34 62/72/56 61/69/53
f 55/71/55 54/70/54 38/48/32
f 47/54/38 63/61/45 62/72/56
f 56/73/57 55/71/55 39/52/36
f 70/74/32 69/91/28 53/68/52
f 78/75/34 77/92/30 61/69/53
f 71/76/36 70/74/32 54/70/54
f 79/77/38 78/75/34 62/72/56
f 72/78/40 71/76/36 55/71/55
f 80/79/42 79/77/38 63/61/45
f 73/80/43 72/78/40 56/73/57
f 66/81/44 65/83/13 49/82/58
f 65/83/13 80/79/42 64/64/48
f 74/84/16 73/80/43 57/62/46
f 67/86/19 66/81/44 50/63/47
f 75/87/22 74/84/16 58/85/59
f 68/88/24 67/86/19 51/66/50
f 76/90/26 75/87/22 59/65/49
f 69/91/28 68/88/24 52/89/60
f 77/92/30 76/90/26 60/67/51
f 91/93/61 90/105/73 74/84/16
f 84/94/62 83/113/81 67/86/19
f 92/95/63 91/93/61 75/87/22
f 85/96/64 84/94/62 68/88/24
f 93/97/65 92/95/63 76/90/26
f 86/98/66 85/96/64 69/91/28
f 94/99/67 93/97/65 77/92/30
f 87/100/68 86/98/66 70/74/32
f 95/101/69 94/99/67 78/75/34
f 88/102/70 87/100/68 71/76/36
f 80/79/42 96/104/72 95/101/69
f 73/80/43 89/109/77 88/102/70
f 66/81/44 82/106/74 81/103/71
f 65/83/13 81/103/71 96/104/72
f 90/105/73 89/109/77 73/80/43
f 67/86/19 83/113/81 82/106/74
f 112/107/75 111/126/91 95/101/69
f 105/108/76 104/120/88 88/102/70
f 98/110/78 97/131/92 81/103/71
f 81/103/71 97/131/92 112/107/75
f 106/111/79 105/108/76 89/109/77
f 99/112/80 98/110/78 82/106/74
f 107/114/82 106/111/79 90/105/73
f 100/115/83 99/112/80 83/113/81
f 108/116/84 107/114/82 91/93/61
f 101/117/85 100/115/83 84/94/62
f 93/97/65 109/122/89 108/116/84
f 86/98/66 102/119/87 101/117/85
f 110/118/86 109/122/89 93/97/65
f 87/100/68 103/124/90 102/119/87
f 95/101/69 111/126/91 110/118/86
f 104/120/88 103/124/90 87/100/68
f 126/121/34 125/139/30 109/122/89
f 119/123/36 118/140/32 102/119/87
f 127/125/38 126/121/34 110/118/86
f 120/127/40 119/123/36 103/124/90
f 128/128/42 127/125/38 111/126/91
f 121/129/43 120/127/40 104/120/88
f 114/130/44 113/132/13 97/131/92
f 113/132/13 128/128/42 112/107/75
f 122/133/16 121/129/43 105/108/76
f 115/134/19 114/130/44 98/110/78
f 123/135/22 122/133/16 106/111/79
f 116/136/24 115/134/19 99/112/80
f 124/137/26 123/135/22 107/114/82
f 117/138/28 116/136/24 100/115/83
f 125/139/30 124/137/26 108/116/84
f 118/140/32 117/138/28 101/117/85
f 116/136/24 132/152/93 131/141/93
f 140/142/93 139/151/93 123/135/22
f 133/143/93 132/152/93 116/136/24
f 125/139/30 141/153/93 140/142/93
f 134/144/93 133/143/93 117/138/28
f 142/145/93 141/153/93 125/139/30
f 119/123/36 135/154/93 134/144/93
f 143/146/93 142/145/93 126/121/34
f 136/147/93 135/154/93 119/123/36
f 144/148/93 143/146/93 127/125/38
f 121/129/43 137/155/93 136/147/93
f 130/149/93 129/156/93 113/132/13
f 113/132/13 129/156/93 144/148/93
f 138/150/93 137/155/93 121/129/43
f 131/141/93 130/149/93 114/130/44
f 139/151/93 138/150/93 122/133/16
o Circle.001
v -0.000000 0.567957 -0.411732
v -0.157563 0.567957 -0.380391
v -0.291139 0.567957 -0.291139
v -0.380391 0.567957 -0.157563
v -0.411732 0.567957 0.000000
v -0.380391 0.567957 0.157563
v -0.291139 0.567957 0.291139
v -0.157563 0.567957 0.380391
v -0.000000 0.567957 0.411732
v 0.157563 0.567957 0.380391
v 0.291138 0.567957 0.291139
v 0.380391 0.567957 0.157563
v 0.411732 0.567957 -0.000000
v 0.380391 0.567957 -0.157563
v 0.291138 0.567957 -0.291139
v 0.157563 0.567957 -0.380391
v -0.000000 1.550046 -0.411732
v -0.157563 1.550046 -0.380391
v -0.291139 1.550046 -0.291139
v -0.380391 1.550046 -0.157563
v -0.411732 1.550046 0.000000
v -0.380391 1.550046 0.157563
v -0.291139 1.550046 0.291139
v -0.157563 1.550046 0.380391
v -0.000000 1.550046 0.411732
v 0.157563 1.550046 0.380391
v 0.291138 1.550046 0.291139
v 0.380391 1.550046 0.157563
v 0.411732 1.550046 -0.000000
v 0.380391 1.550046 -0.157563
v 0.291138 1.550046 -0.291139
v 0.157563 1.550046 -0.380391
vt 0.000000 0.000000
vt 0.000000 0.000000
vt 0.000000 0.000000
vt 0.000000 0.000000
vt 0.000000 0.000000
vt 0.000000 0.000000
vt 0.000000 0.000000
vt 0.000000 0.000000
vt 0.000000 0.000000
vt 0.000000 0.000000
vt 0.000000 0.000000
vt 0.000000 0.000000
vt 0.000000 0.000000
vt 0.000000 0.000000
vt 0.000000 0.000000
vt 0.000000 0.000000
vt 0.000000 0.000000
vt 0.000000 0.000000
vt 0.000000 0.000000
vt 0.000000 0.000000
vt 0.000000 0.000000
vt 0.000000 0.000000
vt 0.000000 0.000000
vt 0.000000 0.000000
vt 0.000000 0.000000
vt 0.000000 0.000000
vt 0.000000 0.000000
vt 0.000000 0.000000
vt 0.000000 0.000000
vt 0.000000 0.000000
vt 0.000000 0.000000
vt 0.000000 0.000000
vn 0.0000 0.0000 1.0000
vn -0.3827 0.0000 0.9239
vn -0.3827 0.0000 -0.9239
vn 0.0000 0.0000 -1.0000
vn 0.3827 0.0000 -0.9239
vn 0.3827 0.0000 0.9239
vn -0.7071 0.0000 -0.7071
vn 0.7071 0.0000 0.7071
vn -0.9239 0.0000 -0.3827
vn 0.9239 0.0000 0.3827
vn -1.0000 0.0000 0.0000
vn 1.0000 0.0000 0.0000
vn -0.9239 0.0000 0.3827
vn 0.9239 0.0000 -0.3827
vn -0.7071 0.0000 0.7071
vn 0.7071 0.0000 -0.7071
usemtl None
s 1
f 169/157/94 152/158/95 153/159/94
f 162/160/96 145/161/97 146/162/96
f 161/163/97 160/164/98 145/161/97
f 170/165/99 153/159/94 154/166/99
f 163/167/100 146/162/96 147/168/100
f 171/169/101 154/166/99 155/170/101
f 164/171/102 147/168/100 148/172/102
f 172/173/103 155/170/101 156/174/103
f 165/175/104 148/172/102 149/176/104
f 173/177/105 156/174/103 157/178/105
f 166/179/106 149/176/104 150/180/106
f 174/181/107 157/178/105 158/182/107
f 167/183/108 150/180/106 151/184/108
f 175/185/109 158/182/107 159/186/109
f 168/187/95 151/184/108 152/158/95
f 176/188/98 159/186/109 160/164/98
f 169/157/94 168/187/95 152/158/95
f 162/160/96 161/163/97 145/161/97
f 161/163/97 176/188/98 160/164/98
f 170/165/99 169/157/94 153/159/94
f 163/167/100 162/160/96 146/162/96
f 171/169/101 170/165/99 154/166/99
f 164/171/102 163/167/100 147/168/100
f 172/173/103 171/169/101 155/170/101
f 165/175/104 164/171/102 148/172/102
f 173/177/105 172/173/103 156/174/103
f 166/179/106 165/175/104 149/176/104
f 174/181/107 173/177/105 157/178/105
f 167/183/108 166/179/106 150/180/106
f 175/185/109 174/181/107 158/182/107
f 168/187/95 167/183/108 151/184/108
f 176/188/98 175/185/109 159/186/109
