# Blender v2.81 (sub 16) OBJ File: 'sword_base.blend'
# www.blender.org
o Cube
v 0.015950 1.398824 0.351368
v -0.086796 1.398824 0.351368
v -0.086796 1.398824 -0.462571
v 0.015950 1.398824 -0.462570
v 0.015950 6.273378 -0.021033
v -0.086796 6.273378 -0.021033
v -0.086796 6.424427 -0.653228
v 0.015950 6.424427 -0.653228
v 0.015950 5.672647 0.237449
v -0.086796 5.672647 0.237449
v -0.086796 5.672647 -0.368431
v 0.015950 5.672647 -0.368430
v 0.015950 3.915631 0.216176
v -0.086796 3.915631 0.216176
v -0.086796 3.915631 -0.298549
v 0.015950 3.915631 -0.298549
v -0.035423 1.398824 0.597414
v -0.035423 1.398824 -0.462571
v -0.035423 6.351667 0.203025
v -0.035423 5.672647 0.483495
v -0.035423 5.672647 -0.368431
v -0.035423 3.915631 0.407549
v -0.035423 3.915631 -0.298549
v -0.035423 6.789309 -0.824246
v -0.035423 6.424427 -0.653228
v -0.035423 1.398824 -0.552748
v -0.035423 1.398824 0.696475
v 0.070955 1.398824 -0.500461
v -0.141801 1.398824 -0.500461
v -0.141800 1.398824 0.635663
v 0.070955 1.398824 0.635663
v 0.133217 0.988773 0.713666
v -0.204062 0.988773 0.713666
v -0.204062 0.988773 -0.578861
v 0.133217 0.988773 -0.578861
v -0.035423 0.988773 0.782981
v -0.035423 0.988773 -0.638460
v -0.035423 0.606058 -0.495442
v -0.035423 0.606058 0.638636
v 0.070955 0.606058 -0.448052
v -0.141801 0.606058 -0.448052
v -0.141800 0.606058 0.583520
v 0.070955 0.606058 0.583520
v 0.036679 0.606058 0.150307
v -0.107524 0.606058 0.150307
v -0.107524 0.606058 -0.038921
v 0.036679 0.606058 -0.038921
v -0.035423 0.606058 0.198868
v -0.035423 0.606058 -0.087482
v -0.035423 -1.340536 -0.087482
v -0.035423 -1.340536 0.198868
v 0.036679 -1.340536 -0.038921
v -0.107524 -1.340536 -0.038921
v -0.107524 -1.340536 0.150307
v 0.036679 -1.340536 0.150307
v 0.064449 -1.340536 0.186748
v -0.135295 -1.340536 0.186748
v -0.135295 -1.340536 -0.075362
v 0.064449 -1.340536 -0.075362
v -0.035423 -1.340536 0.254013
v -0.035423 -1.340536 -0.142627
v -0.035423 -1.531854 -0.224219
v -0.035423 -1.531854 0.335605
v 0.064449 -1.531854 -0.129281
v -0.135295 -1.531854 -0.129281
v -0.135295 -1.531854 0.240666
v 0.064449 -1.531854 0.240666
v 0.064449 -1.687293 0.199519
v -0.135295 -1.687293 0.199519
v -0.135295 -1.687293 -0.088133
v 0.064449 -1.687293 -0.088133
v -0.035423 -1.764169 0.273338
v -0.035423 -1.764169 -0.161953
v -0.035423 -1.764169 0.273338
v -0.035423 -1.764169 -0.161953
v -0.035423 -1.531854 -0.224219
v -0.035423 -1.531854 0.335605
v -0.035423 -1.340536 0.254013
v -0.035423 -1.340536 -0.142627
v -0.035423 -1.340536 -0.087482
v -0.035423 -1.340536 0.198868
v 0.036679 -1.340536 -0.038921
v 0.036679 -1.340536 0.150307
v -0.107524 -1.340536 -0.038921
v -0.107524 -1.340536 0.150307
v -0.035423 0.606058 0.198868
v -0.035423 0.606058 -0.087482
v 0.036679 0.606058 -0.038921
v -0.107524 0.606058 -0.038921
v -0.035423 0.606058 -0.495442
v -0.107524 0.606058 0.150307
v 0.036679 0.606058 0.150307
v -0.035423 0.606058 0.638636
v -0.035423 0.988773 0.782981
v -0.035423 0.988773 -0.638460
v -0.035423 1.398824 -0.552748
v -0.035423 1.398824 0.696475
v -0.035423 1.398824 0.597414
v -0.035423 1.398824 -0.462571
v -0.035423 6.789309 -0.824246
v -0.035423 6.424427 -0.653228
v -0.035423 6.351667 0.203025
v -0.035423 5.672647 -0.368431
v -0.035423 3.915631 -0.298549
v -0.035423 5.672647 0.483495
v -0.035423 3.915631 0.407549
v 0.015950 1.398824 -0.462570
v -0.086796 1.398824 -0.462571
v -0.086796 1.398824 0.351368
v 0.015950 1.398824 0.351368
vt 0.748952 0.866614
vt 0.722414 0.718132
vt 0.621192 0.803237
vt 0.751389 0.867812
vt 0.724224 0.719320
vt 0.878180 0.805064
vt 0.060360 0.184625
vt 0.451824 0.429749
vt 0.163418 0.089637
vt 0.375140 0.495639
vt 0.623280 0.804935
vt 0.452499 0.432406
vt 0.061043 0.187634
vt 0.376068 0.498422
vt 0.725549 0.914143
vt 0.722940 0.912808
vt 0.578982 0.839696
vt 0.334754 0.533733
vt 0.017275 0.225343
vt 0.333741 0.530860
vt 0.016573 0.222292
vt 0.494329 0.395643
vt 0.491211 0.394021
vt 0.164210 0.092459
vt 0.206590 0.052890
vt 0.759112 0.683486
vt 0.958217 0.842895
vt 0.884417 0.795338
vt 0.875903 0.804431
vt 0.955727 0.842560
vt 0.882174 0.794738
vt 0.247711 0.927532
vt 0.277564 0.955303
vt 0.243082 0.947176
vt 0.248641 0.926259
vt 0.278494 0.954030
vt 0.268464 0.915266
vt 0.042969 0.747930
vt 0.072178 0.717744
vt 0.029136 0.704883
vt 0.042039 0.749203
vt 0.071248 0.719016
vt 0.131133 0.815833
vt 0.132063 0.814560
vt 0.267534 0.916539
vt 0.138932 0.624051
vt 0.361594 0.858716
vt 0.139862 0.622778
vt 0.028206 0.706155
vt 0.102961 0.580261
vt 0.362524 0.857443
vt 0.396354 0.893503
vt 0.441079 0.783009
vt 0.442009 0.781736
vt 0.413600 0.772731
vt 0.233376 0.535820
vt 0.232447 0.537093
vt 0.236457 0.578255
vt 0.237386 0.576982
vt 0.412670 0.774004
vt 0.334122 0.656949
vt 0.381719 0.710038
vt 0.335051 0.655676
vt 0.338781 0.627957
vt 0.339711 0.626684
vt 0.399582 0.709299
vt 0.382648 0.708765
vt 0.398652 0.710572
vt 0.970273 0.100644
vt 0.395810 0.026798
vt 0.965877 0.026166
vt 0.975453 0.249968
vt 0.400991 0.176119
vt 0.971057 0.175490
vt 0.968762 0.100733
vt 0.394299 0.026884
vt 0.964366 0.026255
vt 0.976965 0.249879
vt 0.402502 0.176032
vt 0.972569 0.175401
vt 0.398695 0.101362
vt 0.400206 0.101275
vt 0.750534 0.469944
vt 0.828659 0.462141
vt 0.818482 0.473038
vt 0.818640 0.473103
vt 0.741569 0.458374
vt 0.751644 0.469384
vt 0.721972 0.487432
vt 0.741215 0.459107
vt 0.722210 0.486606
vt 0.701743 0.475203
vt 0.847133 0.490863
vt 0.828067 0.462358
vt 0.846781 0.491582
vt 0.867410 0.478271
vt 0.845435 0.400998
vt 0.900335 0.398679
vt 0.867677 0.478947
vt 0.844747 0.400380
vt 0.723987 0.402732
vt 0.669118 0.401014
vt 0.701580 0.475409
vt 0.723678 0.402672
vt 0.831402 0.351388
vt 0.738387 0.349459
vt 0.668094 0.400528
vt 0.738453 0.349343
vt 0.703172 0.307120
vt 0.900341 0.399633
vt 0.832327 0.351790
vt 0.865035 0.308393
vt 0.865251 0.307120
vt 0.736142 0.699572
vt 0.890098 0.785316
vt 0.886492 0.783961
vt 0.581211 0.841578
vt 0.208495 0.056026
vt 0.761974 0.685181
vt 0.244012 0.945904
vt 0.102032 0.581534
vt 0.397283 0.892230
vt 0.405386 0.250597
vt 0.406898 0.250511
vt 0.702852 0.307369
vt 0.733004 0.697662
vn -1.0000 -0.0000 -0.0000
vn 1.0000 0.0000 -0.0000
vn 0.9773 0.0838 0.1948
vn -0.9754 0.0841 0.2037
vn 0.9788 0.0154 0.2044
vn -0.9788 0.0154 0.2044
vn 0.9658 -0.0031 0.2593
vn -0.9789 -0.0088 0.2044
vn 0.0000 0.0650 -0.9979
vn 0.0000 -0.0397 -0.9992
vn 0.9520 0.2815 0.1199
vn 0.0000 -0.4244 -0.9055
vn -0.9870 0.1565 0.0374
vn 0.0000 1.0000 0.0000
vn 0.9887 0.1501 0.0000
vn -0.9887 0.1501 0.0000
vn 0.4825 0.2338 0.8441
vn -0.3731 0.1915 0.9078
vn -0.4291 0.2321 -0.8730
vn 0.3269 0.1934 -0.9251
vn 0.3143 -0.3323 -0.8893
vn -0.3806 -0.3539 -0.8543
vn -0.3590 -0.3294 0.8733
vn 0.4305 -0.3526 0.8309
vn -0.9870 -0.1606 0.0000
vn 0.9870 -0.1606 0.0000
vn 0.0000 -1.0000 0.0000
vn 0.5586 0.0000 -0.8294
vn -0.5586 0.0000 -0.8294
vn -0.5586 -0.0000 0.8294
vn 0.5586 -0.0000 0.8294
vn 0.6583 0.2953 -0.6925
vn -0.5440 0.2276 -0.8077
vn -0.6583 0.2953 0.6925
vn 0.5440 0.2276 0.8076
vn 0.6766 -0.1884 0.7118
vn -0.6743 -0.1912 0.7132
vn -0.6766 -0.1884 -0.7118
vn 0.6743 -0.1912 -0.7132
vn 0.6100 -0.7924 0.0000
vn -0.6100 -0.7924 0.0000
vn 0.0000 -0.3543 -0.9351
vn 0.9754 0.0841 0.2037
vn -0.9773 0.0838 0.1948
vn 0.9657 0.0139 0.2592
vn -0.9657 0.0139 0.2592
vn 0.9789 -0.0088 0.2044
vn -0.9658 -0.0031 0.2593
vn 0.9870 0.1565 0.0374
vn -0.9520 0.2815 0.1199
vn 0.3731 0.1915 0.9078
vn -0.4825 0.2338 0.8441
vn -0.3269 0.1934 -0.9251
vn 0.4291 0.2321 -0.8730
vn 0.3806 -0.3539 -0.8543
vn -0.3143 -0.3323 -0.8893
vn -0.4305 -0.3526 0.8309
vn 0.3590 -0.3294 0.8733
vn 0.5440 0.2276 -0.8077
vn -0.6583 0.2953 -0.6925
vn -0.5440 0.2276 0.8076
vn 0.6583 0.2953 0.6925
vn 0.6743 -0.1912 0.7132
vn -0.6766 -0.1884 0.7118
vn -0.6743 -0.1912 -0.7132
vn 0.6766 -0.1884 -0.7118
s off
f 6/1/1 11/2/1 10/3/1
f 5/4/2 12/5/2 8/6/2
f 2/7/1 15/8/1 3/9/1
f 10/3/1 15/8/1 14/10/1
f 9/11/2 16/12/2 12/5/2
f 1/13/2 16/12/2 13/14/2
f 19/15/3 9/11/3 5/4/3
f 19/16/4 10/3/4 20/17/4
f 1/13/5 22/18/5 17/19/5
f 22/20/6 2/7/6 17/21/6
f 9/11/7 22/18/7 13/14/7
f 10/3/8 22/20/8 20/17/8
f 23/22/9 3/9/9 15/8/9
f 23/23/9 4/24/9 18/25/9
f 11/2/10 23/22/10 15/8/10
f 12/5/10 23/23/10 21/26/10
f 5/4/11 24/27/11 19/15/11
f 8/6/12 25/28/12 24/27/12
f 7/29/12 24/30/12 25/31/12
f 6/1/13 24/30/13 7/29/13
f 4/32/14 26/33/14 18/34/14
f 3/35/14 26/36/14 29/37/14
f 17/38/14 30/39/14 27/40/14
f 17/41/14 31/42/14 1/43/14
f 2/44/14 29/37/14 30/39/14
f 1/43/14 28/45/14 4/32/14
f 28/45/15 32/46/15 35/47/15
f 29/37/16 33/48/16 30/39/16
f 27/49/17 32/46/17 31/42/17
f 27/40/18 33/48/18 36/50/18
f 26/36/19 34/51/19 29/37/19
f 26/33/20 35/47/20 37/52/20
f 35/47/21 38/53/21 37/52/21
f 34/51/22 38/54/22 41/55/22
f 33/48/23 39/56/23 36/50/23
f 32/46/24 39/57/24 43/58/24
f 33/48/25 41/55/25 42/59/25
f 32/46/26 40/60/26 35/47/26
f 40/60/27 44/61/27 47/62/27
f 41/55/27 45/63/27 42/59/27
f 43/58/27 48/64/27 44/61/27
f 42/59/27 48/65/27 39/56/27
f 41/55/27 49/66/27 46/67/27
f 40/60/27 49/68/27 38/53/27
f 47/69/28 50/70/28 49/71/28
f 49/72/29 53/73/29 46/74/29
f 45/75/30 51/76/30 48/77/30
f 48/78/31 55/79/31 44/80/31
f 46/74/1 54/81/1 45/75/1
f 44/80/2 52/82/2 47/69/2
f 55/83/14 59/84/14 52/85/14
f 53/86/14 57/87/14 54/88/14
f 51/89/14 56/90/14 55/83/14
f 51/91/14 57/87/14 60/92/14
f 50/93/14 58/94/14 53/86/14
f 50/95/14 59/84/14 61/96/14
f 61/96/32 64/97/32 62/98/32
f 61/99/33 65/100/33 58/94/33
f 60/92/34 66/101/34 63/102/34
f 60/103/35 67/104/35 56/90/35
f 58/94/1 66/101/1 57/87/1
f 56/90/2 64/97/2 59/84/2
f 67/104/2 71/105/2 64/97/2
f 65/100/1 69/106/1 66/101/1
f 63/107/36 68/108/36 67/104/36
f 63/102/37 69/106/37 72/109/37
f 62/110/38 70/111/38 65/100/38
f 62/98/39 71/105/39 73/112/39
f 68/108/40 73/112/40 71/105/40
f 69/106/41 73/113/41 72/109/41
f 8/6/42 103/114/42 101/115/42
f 101/116/42 11/2/42 7/29/42
f 6/1/1 7/29/1 11/2/1
f 5/4/2 9/11/2 12/5/2
f 2/7/1 14/10/1 15/8/1
f 10/3/1 11/2/1 15/8/1
f 9/11/2 13/14/2 16/12/2
f 1/13/2 4/24/2 16/12/2
f 19/15/43 20/117/43 9/11/43
f 19/16/44 6/1/44 10/3/44
f 1/13/45 13/14/45 22/18/45
f 22/20/46 14/10/46 2/7/46
f 9/11/47 20/117/47 22/18/47
f 10/3/48 14/10/48 22/20/48
f 23/22/9 18/118/9 3/9/9
f 23/23/9 16/12/9 4/24/9
f 11/2/10 21/119/10 23/22/10
f 12/5/10 16/12/10 23/23/10
f 5/4/49 8/6/49 24/27/49
f 6/1/50 19/16/50 24/30/50
f 4/32/14 28/45/14 26/33/14
f 3/35/14 18/120/14 26/36/14
f 17/38/14 2/44/14 30/39/14
f 17/41/14 27/49/14 31/42/14
f 2/44/14 3/35/14 29/37/14
f 1/43/14 31/42/14 28/45/14
f 28/45/15 31/42/15 32/46/15
f 29/37/16 34/51/16 33/48/16
f 27/49/51 36/121/51 32/46/51
f 27/40/52 30/39/52 33/48/52
f 26/36/53 37/122/53 34/51/53
f 26/33/54 28/45/54 35/47/54
f 35/47/55 40/60/55 38/53/55
f 34/51/56 37/122/56 38/54/56
f 33/48/57 42/59/57 39/56/57
f 32/46/58 36/121/58 39/57/58
f 33/48/25 34/51/25 41/55/25
f 32/46/26 43/58/26 40/60/26
f 40/60/27 43/58/27 44/61/27
f 41/55/27 46/67/27 45/63/27
f 43/58/27 39/57/27 48/64/27
f 42/59/27 45/63/27 48/65/27
f 41/55/27 38/54/27 49/66/27
f 40/60/27 47/62/27 49/68/27
f 47/69/28 52/82/28 50/70/28
f 49/72/29 50/123/29 53/73/29
f 45/75/30 54/81/30 51/76/30
f 48/78/31 51/124/31 55/79/31
f 46/74/1 53/73/1 54/81/1
f 44/80/2 55/79/2 52/82/2
f 55/83/14 56/90/14 59/84/14
f 53/86/14 58/94/14 57/87/14
f 51/89/14 60/103/14 56/90/14
f 51/91/14 54/88/14 57/87/14
f 50/93/14 61/99/14 58/94/14
f 50/95/14 52/85/14 59/84/14
f 61/96/59 59/84/59 64/97/59
f 61/99/60 62/110/60 65/100/60
f 60/92/61 57/87/61 66/101/61
f 60/103/62 63/107/62 67/104/62
f 58/94/1 65/100/1 66/101/1
f 56/90/2 67/104/2 64/97/2
f 67/104/2 68/108/2 71/105/2
f 65/100/1 70/111/1 69/106/1
f 63/107/63 72/125/63 68/108/63
f 63/102/64 66/101/64 69/106/64
f 62/110/65 73/113/65 70/111/65
f 62/98/66 64/97/66 71/105/66
f 68/108/40 72/125/40 73/112/40
f 69/106/41 70/111/41 73/113/41
f 8/6/42 12/5/42 103/114/42
f 101/116/42 103/126/42 11/2/42
l 73 75
l 72 74
l 62 76
l 63 77
l 60 78
l 61 79
l 50 80
l 51 81
l 52 82
l 55 83
l 54 85
l 53 84
l 48 86
l 49 87
l 47 88
l 46 89
l 38 90
l 45 91
l 44 92
l 39 93
l 36 94
l 37 95
l 26 96
l 27 97
l 17 98
l 18 99
l 24 100
l 25 101
l 19 102
l 21 103
l 23 104
l 22 106
l 20 105
l 4 107
l 3 108
l 2 109
l 1 110
